HIERARCHY
ROOT Hips
{
     OFFSET 1.88212 96.90440 -13.34250
     CHANNELS 6 Xposition Yposition Zposition Zrotation Xrotation Yrotation
     JOINT Spine
     {
          OFFSET 0.00000 11.89050 0.00000
          CHANNELS 3 Zrotation Xrotation Yrotation
          JOINT Spine1
          {
               OFFSET -0.00000 25.65740 0.12766
               CHANNELS 3 Zrotation Xrotation Yrotation
               JOINT HEad
               {
                    OFFSET 0.00000 8.73416 0.01134
                    CHANNELS 3 Zrotation Xrotation Yrotation
                    End Site
                    {
                         OFFSET -0.29000 12.77420 2.51395
                    }
               }
               JOINT LeftShoulder1
               {
                    OFFSET 8.99000 -0.36225 -0.22000
                    CHANNELS 3 Zrotation Xrotation Yrotation
                    JOINT LeftArm
                    {
                         OFFSET 10.28270 -0.00338 0.32212
                         CHANNELS 3 Zrotation Xrotation Yrotation
                         JOINT LeftForeArm
                         {
                              OFFSET 32.76690 0.09914 -1.42434
                              CHANNELS 3 Zrotation Xrotation Yrotation
                              JOINT LeftHand
                              {
                                   OFFSET 27.56430 0.08536 1.02216
                                   CHANNELS 3 Zrotation Xrotation Yrotation
                                   End Site
                                   {
                                        OFFSET 16.74430 -0.60000 1.50291
                                   }
                              }
                         }
                    }
               }
               JOINT RightShoulder
               {
                    OFFSET -8.99000 -0.36225 -0.22000
                    CHANNELS 3 Zrotation Xrotation Yrotation
                    JOINT RightArm
                    {
                         OFFSET -10.28270 -0.00338 0.32212
                         CHANNELS 3 Zrotation Xrotation Yrotation
                         JOINT RightForeArm
                         {
                              OFFSET -32.89710 0.09914 -1.42434
                              CHANNELS 3 Zrotation Xrotation Yrotation
                              JOINT RightHand
                              {
                                   OFFSET -27.49210 0.08536 1.02216
                                   CHANNELS 3 Zrotation Xrotation Yrotation
                                   End Site
                                   {
                                        OFFSET -16.63120 -0.60000 1.50291
                                   }
                              }
                         }
                    }
               }
          }
     }
     JOINT LeftUpLeg
     {
          OFFSET 8.94580 -8.66707 0.10165
          CHANNELS 3 Zrotation Xrotation Yrotation
          JOINT LeftLeg
          {
               OFFSET 0.00000 -44.42270 1.37270
               CHANNELS 3 Zrotation Xrotation Yrotation
               JOINT LeftFoot
               {
                    OFFSET -0.25355 -42.09240 -1.46059
                    CHANNELS 3 Zrotation Xrotation Yrotation
                    JOINT LeftToes
                    {
                         OFFSET -0.04000 -4.41509 8.49910
                         CHANNELS 3 Zrotation Xrotation Yrotation
                         End Site
                         {
                              OFFSET 0.08000 -0.04745 9.77979
                         }
                    }
               }
          }
     }
     JOINT RightUpLeg
     {
          OFFSET -8.94580 -8.66707 0.10165
          CHANNELS 3 Zrotation Xrotation Yrotation
          JOINT RightLeg
          {
               OFFSET 0.00000 -44.42270 1.37270
               CHANNELS 3 Zrotation Xrotation Yrotation
               JOINT RightFoot
               {
                    OFFSET 0.25355 -42.09240 -1.46059
                    CHANNELS 3 Zrotation Xrotation Yrotation
                    JOINT RightToes
                    {
                         OFFSET 0.04000 -4.41509 8.49910
                         CHANNELS 3 Zrotation Xrotation Yrotation
                         End Site
                         {
                              OFFSET -0.08000 -0.13745 9.77979
                         }
                    }
               }
          }
     }
}
MOTION
Frames: 12
Frame Time: 0.01667
41.31923 93.47289 -118.16096 1.66588 1.37980 -20.30654 -0.86621 3.85763 9.25697 -0.03734 0.06805 0.02344 -7.40043 6.19620 9.45455 -20.05107 22.85909 17.44556 -115.72262 -44.73575 -125.15263 -31.89626 43.18686 -85.47033 13.24478 -2.61745 7.85244 -18.91047 27.23977 24.97788 105.28569 -21.61691 92.18360 49.42755 53.17229 86.28698 -3.07881 1.55144 -2.90609 15.72347 -13.22373 0.37213 -1.09412 16.18555 7.58575 3.21425 -0.02127 0.01195 -24.66560 -13.47382 -6.10177 -6.36252 10.85382 -21.76303 -5.68030 11.56140 13.18396 -0.22573 -0.02060 0.06342 0.17301 -27.94022 -6.10915 
40.57944 90.91499 -118.47289 3.36410 0.04184 -15.39243 -6.49531 9.13583 8.26780 -0.03775 0.06463 0.01638 -6.05874 5.14547 9.22689 -16.47118 20.42381 13.85225 -118.26592 -41.88430 -122.03175 -38.53370 43.79253 -80.45184 5.22004 14.42464 -5.07160 -14.71085 24.31586 20.73586 99.13814 -22.01193 84.18519 44.65873 54.56485 96.13705 -9.18528 15.42990 2.83995 12.47413 -18.70004 -2.35470 0.17303 24.20695 7.02641 3.60990 -0.00754 0.01352 -26.91009 -15.24514 -8.90385 -7.67645 7.94529 -24.97349 -9.43387 21.40070 11.82368 1.23698 -0.00707 0.08114 -3.30376 -16.48445 -13.65182 
39.73903 88.06039 -119.04802 4.98946 -1.11569 -11.01016 -11.93825 15.21167 8.40240 -0.03342 0.06150 0.00744 -4.95994 4.36880 9.70506 -13.08287 17.66795 10.36800 -120.08708 -39.57523 -119.98765 -42.46607 45.24810 -78.09248 13.09911 -4.23046 11.13950 -10.46505 21.19309 16.72504 95.27902 -21.82486 79.58516 41.05030 55.05087 102.49516 -4.51142 -7.45462 -11.82341 8.95799 -24.51570 -3.96593 2.62364 32.55040 4.57437 3.86460 -0.00670 0.01034 -29.08789 -16.89590 -11.32681 -9.45451 4.06559 -26.86794 -13.71055 32.34715 11.86989 2.50655 -0.05240 0.08185 -1.39175 -28.95847 -9.51996 
38.73745 84.65608 -119.95113 6.54832 -2.07624 -7.05683 -17.30395 21.85409 9.52904 -0.02501 0.06121 -0.00250 -4.21080 3.63339 11.01948 -16.03937 24.59371 11.08068 -124.01917 -30.24816 -125.29568 -43.32307 50.38071 -80.21357 11.92473 9.50195 2.64793 -13.17614 27.41148 18.11702 97.87180 -22.76561 84.14469 39.12021 55.38758 105.59789 -9.97256 10.30412 -1.67334 5.37132 -30.59175 -4.54666 7.03832 41.08167 -0.48675 3.91834 -0.00437 0.00567 -31.33893 -18.74508 -13.63273 -11.59535 -0.77415 -27.69104 -20.02021 45.82401 14.74677 4.43917 -0.03260 0.13259 -6.51298 -16.42768 -5.36161 
37.69476 81.20421 -121.08871 8.04865 -2.81956 -3.51233 -22.79861 28.83320 11.67021 -0.01801 0.06101 -0.00684 -3.89236 2.77959 13.17507 -11.70311 20.75538 6.79133 -125.66502 -29.53079 -121.53426 -43.52936 54.23512 -81.83811 10.58880 3.03773 7.12309 -7.53446 23.39218 13.64559 93.53130 -22.60895 78.58031 43.99128 55.02028 99.36888 -3.68971 7.16729 0.05663 1.85304 -36.84850 -4.08499 14.79438 49.25323 -9.45780 3.68929 -0.00080 -0.00278 -33.67060 -20.69326 -15.79471 -13.92644 -6.35198 -27.54956 -30.30990 58.82244 22.79225 5.64772 -0.09685 0.08066 -6.46256 -27.15208 -9.08035 
36.63465 77.63399 -122.42195 9.48644 -3.32828 -0.37598 -28.63090 35.92251 14.90118 -0.00808 0.05798 -0.00900 -3.49790 0.89687 14.89317 -7.89517 16.58322 3.08697 -126.86164 -29.15648 -118.90212 -43.33224 57.11503 -83.37945 10.12598 10.36904 2.12496 -2.37430 18.96102 10.12127 90.62413 -22.60954 74.98929 45.82460 55.08446 97.06769 -8.12447 17.28918 7.37900 -1.43631 -43.17147 -2.52796 26.95517 55.72995 -23.41872 3.57490 0.00128 -0.00159 -35.95329 -22.53672 -17.75529 -16.11758 -12.29343 -26.45356 -51.29451 70.26128 42.43993 7.63197 -0.04294 0.12709 -17.66381 -24.95372 -1.49969 
35.48776 73.63655 -123.86539 10.81569 -3.60492 2.36657 -34.89395 42.92625 19.29603 0.00731 0.05290 -0.00874 -3.23316 -1.84691 16.15659 -5.90056 23.15112 4.99980 -129.57385 -18.62604 -123.28039 -45.50914 57.37651 -77.99953 8.56851 7.38752 0.44217 1.73144 25.33832 11.87016 92.32684 -26.94155 84.76570 45.95395 55.56458 96.97190 -11.61616 -1.62913 -3.52251 -4.49812 -48.85828 -0.92580 41.68834 59.20830 -39.96234 3.70166 0.00302 0.00251 -38.13670 -24.01235 -19.28205 -18.45574 -18.56341 -24.49702 -76.34842 73.01096 66.60488 2.03573 -0.05777 -0.01288 -3.00696 -30.04192 -10.23492 
34.36406 69.69559 -125.31531 11.96145 -3.65686 4.65983 -41.18267 49.43853 24.61147 0.01770 0.05599 -0.00647 -3.53806 -4.95359 16.92068 -2.14843 17.73352 2.14708 -130.55962 -23.34210 -119.59264 -46.26700 57.25957 -79.99279 7.88900 12.02713 -5.16859 5.98643 19.66979 9.22352 90.42426 -26.92448 81.86994 45.00770 56.26260 98.06653 -13.54032 6.64009 0.38089 -7.22709 -53.93938 0.71881 56.07256 59.79134 -56.13572 4.06057 0.00356 0.00438 -40.02829 -25.06365 -20.29837 -20.24755 -24.85189 -21.46358 -103.80305 73.23650 92.93967 4.88555 -0.16049 0.00149 -3.62626 -27.61486 -10.08394 
33.32019 65.91946 -126.75388 12.88491 -3.50666 6.47029 -47.68457 55.43715 30.83864 0.02706 0.05855 -0.00527 -4.45736 -8.33097 17.18853 0.50170 12.36921 0.28382 -131.07069 -26.15175 -116.96660 -46.63562 57.16645 -81.56841 5.81496 9.07230 13.91892 8.97717 14.08724 7.45962 89.07210 -26.86304 79.79648 43.71783 56.65058 99.47739 -11.19046 3.07372 -0.17633 -9.57158 -58.43758 2.36362 67.30050 58.42607 -69.09814 4.62250 0.00386 0.00288 -41.58392 -25.65054 -20.71905 -21.18820 -30.95555 -17.17340 -125.47732 71.88782 112.76060 4.74676 -0.13837 -0.00932 2.50739 -29.02013 -12.39467 
32.29830 61.97973 -128.14671 13.58583 -3.19577 7.77638 -54.52714 61.02164 37.87516 0.04556 0.06093 -0.00816 -6.12686 -11.93503 17.02341 2.25558 7.09900 -1.16526 -131.50632 -32.22319 -114.51015 -47.50668 56.29692 -86.00587 3.95476 11.40959 4.43811 11.01556 8.66686 6.33729 87.74213 -26.71637 78.31437 42.24633 56.73539 100.94930 -12.20965 7.75436 1.34376 -11.41022 -62.62584 4.01395 75.23095 56.19018 -78.71972 5.11155 0.00442 -0.00140 -42.74580 -25.97050 -20.60120 -21.31347 -36.86973 -11.63541 -142.56898 69.69759 127.79822 8.68935 -0.09065 -0.04133 1.35278 -44.61695 -16.91194 
31.35747 58.35972 -129.45212 14.08888 -2.75918 8.60123 -60.81980 65.11880 44.54858 0.01986 -0.03604 -0.02468 -7.96916 -14.45344 16.82885 3.29450 3.08097 -2.21986 -131.74216 -36.00456 -112.88280 -47.75348 55.65390 -88.38668 5.68506 10.34889 8.72323 12.36671 4.53631 5.69492 86.56438 -26.50000 77.17953 40.78476 56.52610 102.30287 -10.47951 5.78693 0.76573 -12.42713 -66.54465 4.85866 80.31208 54.77662 -85.45603 5.37078 0.00358 -0.00330 -43.50656 -26.00179 -20.14067 -20.71886 -42.57416 -4.98208 -155.87398 66.83286 138.92105 11.40149 -0.07688 -0.04034 -0.18814 -52.53840 -15.55620 
30.46404 54.99408 -130.62775 14.41915 -2.23884 8.98917 -65.99353 68.04292 50.15879 0.01493 -0.03811 -0.02334 -8.61192 -16.93974 16.39704 3.66665 -0.02223 -2.88541 -131.90891 -38.47130 -111.69389 -47.73771 55.26500 -89.73083 4.62814 11.32409 3.08219 13.15507 1.33170 5.32434 85.45039 -26.22697 76.32743 39.47185 56.02263 103.46828 -10.64205 8.67438 1.33793 -12.89736 -70.20945 4.78703 83.92274 54.30696 -90.52718 5.22496 0.00234 -0.00227 -43.89327 -25.98341 -19.48220 -19.51921 -48.04728 2.53279 -165.75784 63.61744 146.92384 15.69496 -0.02835 -0.07283 -0.93031 -63.01366 -13.32581 
